<?xml version="1.0" encoding="utf-8"?>
<svg viewBox="89.55 0 122.85 100" xmlns="http://www.w3.org/2000/svg">
  <g transform="matrix(1.3333332538604736, 0, 0, -1.3333332538604736, 0, 36.47999954223633)" id="g10">
    <g transform="scale(0.1)" id="g12">
      <path id="path16" style="fill:#2fb2a8;fill-opacity:1;fill-rule:nonzero;stroke:none" d="M 1075.981 -120.589 C 1075.981 -120.589 1111.789 -11.722 1117.629 7.973 C 1124.477 31.052 1121.262 43.618 1111.614 47.067 C 1111.215 47.173 1110.95 47.223 1110.95 47.223 L 1112.864 52.622 L 1172.942 52.645 L 1228.203 -120.589 L 1283.02 52.645 L 1325.051 52.645 L 1236.907 -213.011 L 1209.68 -213.011 L 1146.328 -21.515 L 1082.231 -213.011 L 1055.004 -213.011 C 1055.004 -213.011 988.801 -3.683 988.793 -3.667 C 979.153 24.899 972.395 42.837 962.27 46.54 C 961.743 46.743 960.754 47.048 960.149 47.184 C 960.032 47.223 959.961 47.243 959.961 47.243 L 961.899 52.622 L 1022.297 52.645 L 1075.981 -120.589 M 777.114 15.946 L 777.114 -172.652 L 801.164 -172.652 C 871.086 -172.652 910.317 -134.468 910.317 -79.105 C 910.317 -17.152 869.797 15.946 803.625 15.946 L 777.114 15.946 Z M 730.676 13.884 C 730.676 32.848 725.883 44.333 717.68 46.919 C 717.102 47.106 716.555 47.196 716.555 47.196 L 718.457 52.622 L 803.703 52.622 C 910.754 52.622 961.301 1.665 961.301 -79.105 C 961.301 -157.726 905.442 -210.765 799.934 -210.765 L 730.676 -210.765 L 730.676 13.884 Z M 1404.485 -127.046 L 1404.446 -210.777 L 1357.934 -210.777 L 1357.922 13.864 C 1357.922 32.829 1353.203 44.325 1344.993 46.911 C 1344.418 47.087 1343.852 47.184 1343.852 47.184 L 1345.774 52.634 L 1372.453 52.622 L 1433.879 52.622 C 1518.535 52.622 1559.289 18.571 1559.289 -38.413 C 1559.289 -93.902 1513.157 -127.046 1437.043 -127.046 L 1404.485 -127.046 Z M 1437.211 -88.902 C 1479.809 -88.902 1509.133 -71.792 1509.133 -36.968 C 1509.133 -2.288 1483.137 15.985 1436.918 15.985 L 1404.426 15.985 L 1404.465 -88.902 L 1437.211 -88.902"/>
    </g>
  </g>
</svg>